<svg xmlns="http://www.w3.org/2000/svg" viewBox="0 0 357.46 292.54"><defs><style>.cls-1{fill:#5d4eef;}.cls-2{fill:#5b4cef;}.cls-3{fill:#e2e2e2;}</style></defs><g id="Layer_2" data-name="Layer 2"><g id="Layer_1-2" data-name="Layer 1"><path class="cls-1" d="M162.54,138.36H140.32V77.49H75.18v60.42H52V.12H74.6v55.8H140V0h22.5Z"/><path class="cls-2" d="M305.41,137.16c-3.16,1-3.51,1.12-3.86,1.2-16,3.38-27.35-1.05-33.74-17.38-3.45-8.79-9.52-16.56-14.4-24.8-6.91-11.67-16.67-17.34-31.91-14.1V138H198.62V1.09c20.07,0,40.28-1.7,60.06.49,18.63,2.06,28.72,14.57,30.58,31.23C291,49,282.71,63.14,266.68,71c-1.87.92-3.72,1.86-4.29,2.14ZM221.88,62.72c14.83-.12,29.77,3.28,39.5-11.15,5-7.5,5.91-16.48.41-23.82-10.2-13.62-25.28-9.68-39.91-10Z"/><path class="cls-3" d="M324.61,270.4q10.78-36.3,21.52-72.58c1.55-5.28,3.16-10.08,11.33-6.4l-18.81,61c-3.15,10.2-6.1,20.48-9.66,30.54-.91,2.58-3.78,4.48-5.75,6.69-2.24-2.3-5.71-4.24-6.54-7-7.1-23.23-13.72-46.6-21.43-73.19-2.33,6.17-3.77,9.57-4.91,13.07-6.62,20.3-13,40.68-19.91,60.9-.84,2.47-4,4.16-6.11,6.21-2-2.13-5.09-3.91-5.87-6.42C249,252.68,239.8,222,230.53,191.4c7.39-3.46,10.13-.55,12,6.18,6.82,24.46,14.15,48.77,22,75.63,3.06-7.75,5.55-13.25,7.42-19,6-18.19,11.56-36.5,17.63-54.66,1.15-3.44,3.83-6.36,5.81-9.52,2,3.07,4.8,5.89,5.8,9.25,7,23.58,13.69,47.28,20.47,70.94Z"/><path class="cls-3" d="M123.89,240c.13-38.51,29.92-61.5,64.53-49.77a42.17,42.17,0,0,1,6.08,2.58c21.87,11.49,30.54,47,18.09,73.83-10.18,21.94-36.1,31.65-60.06,22.5C134.43,282.14,123.81,264,123.89,240Zm84.58-4.79c-.26-11.68-3.11-27.61-19.62-35.36-13.57-6.38-28.28-6.23-40.61,3.75-15.56,12.6-17,30.23-14.09,48.33,2.38,14.79,10.42,25.72,25.28,30.58a21,21,0,0,0,3.25.52c28.73,4.24,45.67-11.69,45.79-47.87Z"/><path class="cls-3" d="M9.88,215.78H58.73c2.8,6.34,1.48,9.19-5.35,9.13-14.28-.12-28.57,0-44.21,0,0,19.65-.21,38.31.1,57C9.39,289,7.19,291.5,0,288.62V151H63.19c3.24,6.41.45,8.29-6.41,8.19-15.39-.23-30.8-.07-46.9-.07Z"/><path class="cls-3" d="M99.64,280.7c0,6.59-.75,11.21-10.17,7.81V278c0-41.56-.12-83.13.22-124.69v-.82h0a11.68,11.68,0,0,1,9.58.23C99.71,195.36,99.51,238,99.64,280.7Z"/></g></g></svg>